solid OpenSCAD_Model
  facet normal -0.998027 0.0627904 0
    outer loop
      vertex -31.5 0 4
      vertex -31.2516 3.948 87
      vertex -31.2516 3.948 4
    endloop
  endfacet
  facet normal -0.998027 0.0627904 0
    outer loop
      vertex -31.2516 3.948 87
      vertex -31.5 0 4
      vertex -31.5 0 87
    endloop
  endfacet
  facet normal 0 1 0
    outer loop
      vertex 0 31.4378 6
      vertex 1.9779 31.4378 87
      vertex 1.9779 31.4378 6
    endloop
  endfacet
  facet normal 0 1 0
    outer loop
      vertex 1.9779 31.4378 87
      vertex 0 31.4378 6
      vertex -1.9779 31.4378 87
    endloop
  endfacet
  facet normal 0 1 0
    outer loop
      vertex -1.9779 31.4378 4
      vertex 0 31.4378 6
      vertex 0 31.4378 4
    endloop
  endfacet
  facet normal 0 1 0
    outer loop
      vertex 0 31.4378 6
      vertex -1.9779 31.4378 4
      vertex -1.9779 31.4378 87
    endloop
  endfacet
  facet normal 0 -1 0
    outer loop
      vertex -1.9779 -31.4378 87
      vertex 0 -31.4378 6
      vertex 1.9779 -31.4378 87
    endloop
  endfacet
  facet normal 0 -1 0
    outer loop
      vertex -1.9779 -31.4378 4
      vertex 0 -31.4378 6
      vertex -1.9779 -31.4378 87
    endloop
  endfacet
  facet normal 0 -1 -0
    outer loop
      vertex 0 -31.4378 6
      vertex -1.9779 -31.4378 4
      vertex 0 -31.4378 4
    endloop
  endfacet
  facet normal 0 -1 -0
    outer loop
      vertex 1.9779 -31.4378 87
      vertex 0 -31.4378 6
      vertex 1.9779 -31.4378 6
    endloop
  endfacet
  facet normal -0.684547 0.728968 0
    outer loop
      vertex -20.0789 24.2712 4
      vertex -22.9625 21.5632 87
      vertex -20.0789 24.2712 87
    endloop
  endfacet
  facet normal -0.684547 0.728968 0
    outer loop
      vertex -22.9625 21.5632 87
      vertex -20.0789 24.2712 4
      vertex -22.9625 21.5632 4
    endloop
  endfacet
  facet normal -0.368124 0.929777 0
    outer loop
      vertex -9.73403 29.9583 4
      vertex -13.412 28.5021 87
      vertex -9.73403 29.9583 87
    endloop
  endfacet
  facet normal -0.368124 0.929777 0
    outer loop
      vertex -13.412 28.5021 87
      vertex -9.73403 29.9583 4
      vertex -13.412 28.5021 4
    endloop
  endfacet
  facet normal -0.904827 0.425779 0
    outer loop
      vertex -29.288 11.5959 4
      vertex -27.6037 15.1752 87
      vertex -27.6037 15.1752 4
    endloop
  endfacet
  facet normal -0.904827 0.425779 0
    outer loop
      vertex -27.6037 15.1752 87
      vertex -29.288 11.5959 4
      vertex -29.288 11.5959 87
    endloop
  endfacet
  facet normal -0.951057 0.309017 0
    outer loop
      vertex -30.5104 7.83373 4
      vertex -29.288 11.5959 87
      vertex -29.288 11.5959 4
    endloop
  endfacet
  facet normal -0.951057 0.309017 0
    outer loop
      vertex -29.288 11.5959 87
      vertex -30.5104 7.83373 4
      vertex -30.5104 7.83373 87
    endloop
  endfacet
  facet normal -0.125333 0.992115 0
    outer loop
      vertex -1.9779 31.4378 4
      vertex -5.90251 30.942 87
      vertex -1.9779 31.4378 87
    endloop
  endfacet
  facet normal -0.125333 0.992115 0
    outer loop
      vertex -5.90251 30.942 87
      vertex -1.9779 31.4378 4
      vertex -5.90251 30.942 4
    endloop
  endfacet
  facet normal 0.125357 -0.992112 0
    outer loop
      vertex 1.9779 -31.4378 6
      vertex 2 -31.435 87
      vertex 1.9779 -31.4378 87
    endloop
  endfacet
  facet normal 0.125357 -0.992112 0
    outer loop
      vertex 2 -31.435 87
      vertex 1.9779 -31.4378 6
      vertex 2 -31.435 6
    endloop
  endfacet
  facet normal 0.125357 0.992112 -0
    outer loop
      vertex 2 31.435 6
      vertex 1.9779 31.4378 87
      vertex 2 31.435 87
    endloop
  endfacet
  facet normal 0.125357 0.992112 0
    outer loop
      vertex 1.9779 31.4378 87
      vertex 2 31.435 6
      vertex 1.9779 31.4378 6
    endloop
  endfacet
  facet normal -0.844328 0.535827 0
    outer loop
      vertex -27.6037 15.1752 4
      vertex -25.484 18.5152 87
      vertex -25.484 18.5152 4
    endloop
  endfacet
  facet normal -0.844328 0.535827 0
    outer loop
      vertex -25.484 18.5152 87
      vertex -27.6037 15.1752 4
      vertex -27.6037 15.1752 87
    endloop
  endfacet
  facet normal -0.770513 0.637424 0
    outer loop
      vertex -25.484 18.5152 4
      vertex -22.9625 21.5632 87
      vertex -22.9625 21.5632 4
    endloop
  endfacet
  facet normal -0.770513 0.637424 0
    outer loop
      vertex -22.9625 21.5632 87
      vertex -25.484 18.5152 4
      vertex -25.484 18.5152 87
    endloop
  endfacet
  facet normal -0.982287 0.187382 0
    outer loop
      vertex -31.2516 3.948 4
      vertex -30.5104 7.83373 87
      vertex -30.5104 7.83373 4
    endloop
  endfacet
  facet normal -0.982287 0.187382 0
    outer loop
      vertex -30.5104 7.83373 87
      vertex -31.2516 3.948 4
      vertex -31.2516 3.948 87
    endloop
  endfacet
  facet normal -0 0 1
    outer loop
      vertex -1.9779 31.4378 87
      vertex 2 31.435 87
      vertex 1.9779 31.4378 87
    endloop
  endfacet
  facet normal 0 0 1
    outer loop
      vertex 2 31.435 87
      vertex -1.9779 31.4378 87
      vertex 2 -31.435 87
    endloop
  endfacet
  facet normal 0 0 1
    outer loop
      vertex -1.9779 -31.4378 87
      vertex 2 -31.435 87
      vertex -1.9779 31.4378 87
    endloop
  endfacet
  facet normal 0 0 1
    outer loop
      vertex 2 -31.435 87
      vertex -1.9779 -31.4378 87
      vertex 1.9779 -31.4378 87
    endloop
  endfacet
  facet normal -0 0 1
    outer loop
      vertex -5.90251 30.942 87
      vertex -1.9779 -31.4378 87
      vertex -1.9779 31.4378 87
    endloop
  endfacet
  facet normal 0 0 1
    outer loop
      vertex -5.90251 30.942 87
      vertex -5.90251 -30.942 87
      vertex -1.9779 -31.4378 87
    endloop
  endfacet
  facet normal -0 0 1
    outer loop
      vertex -9.73403 29.9583 87
      vertex -5.90251 -30.942 87
      vertex -5.90251 30.942 87
    endloop
  endfacet
  facet normal 0 0 1
    outer loop
      vertex -9.73403 29.9583 87
      vertex -9.73403 -29.9583 87
      vertex -5.90251 -30.942 87
    endloop
  endfacet
  facet normal -0 0 1
    outer loop
      vertex -13.412 28.5021 87
      vertex -9.73403 -29.9583 87
      vertex -9.73403 29.9583 87
    endloop
  endfacet
  facet normal 0 0 1
    outer loop
      vertex -13.412 28.5021 87
      vertex -13.412 -28.5021 87
      vertex -9.73403 -29.9583 87
    endloop
  endfacet
  facet normal -0 0 1
    outer loop
      vertex -16.8785 26.5963 87
      vertex -13.412 -28.5021 87
      vertex -13.412 28.5021 87
    endloop
  endfacet
  facet normal 0 0 1
    outer loop
      vertex -16.8785 26.5963 87
      vertex -16.8785 -26.5963 87
      vertex -13.412 -28.5021 87
    endloop
  endfacet
  facet normal -0 0 1
    outer loop
      vertex -20.0789 24.2712 87
      vertex -16.8785 -26.5963 87
      vertex -16.8785 26.5963 87
    endloop
  endfacet
  facet normal 0 0 1
    outer loop
      vertex -20.0789 24.2712 87
      vertex -20.0789 -24.2712 87
      vertex -16.8785 -26.5963 87
    endloop
  endfacet
  facet normal -0 0 1
    outer loop
      vertex -22.9625 21.5632 87
      vertex -20.0789 -24.2712 87
      vertex -20.0789 24.2712 87
    endloop
  endfacet
  facet normal 0 0 1
    outer loop
      vertex -22.9625 21.5632 87
      vertex -22.9625 -21.5632 87
      vertex -20.0789 -24.2712 87
    endloop
  endfacet
  facet normal -0 0 1
    outer loop
      vertex -25.484 18.5152 87
      vertex -22.9625 -21.5632 87
      vertex -22.9625 21.5632 87
    endloop
  endfacet
  facet normal 0 0 1
    outer loop
      vertex -25.484 18.5152 87
      vertex -25.484 -18.5152 87
      vertex -22.9625 -21.5632 87
    endloop
  endfacet
  facet normal -0 0 1
    outer loop
      vertex -27.6037 15.1752 87
      vertex -25.484 -18.5152 87
      vertex -25.484 18.5152 87
    endloop
  endfacet
  facet normal 0 0 1
    outer loop
      vertex -27.6037 15.1752 87
      vertex -27.6037 -15.1752 87
      vertex -25.484 -18.5152 87
    endloop
  endfacet
  facet normal -0 0 1
    outer loop
      vertex -29.288 11.5959 87
      vertex -27.6037 -15.1752 87
      vertex -27.6037 15.1752 87
    endloop
  endfacet
  facet normal 0 0 1
    outer loop
      vertex -29.288 11.5959 87
      vertex -29.288 -11.5959 87
      vertex -27.6037 -15.1752 87
    endloop
  endfacet
  facet normal -0 0 1
    outer loop
      vertex -30.5104 7.83373 87
      vertex -29.288 -11.5959 87
      vertex -29.288 11.5959 87
    endloop
  endfacet
  facet normal 0 0 1
    outer loop
      vertex -30.5104 7.83373 87
      vertex -30.5104 -7.83373 87
      vertex -29.288 -11.5959 87
    endloop
  endfacet
  facet normal -0 0 1
    outer loop
      vertex -31.2516 3.948 87
      vertex -30.5104 -7.83373 87
      vertex -30.5104 7.83373 87
    endloop
  endfacet
  facet normal 0 0 1
    outer loop
      vertex -31.2516 3.948 87
      vertex -31.2516 -3.948 87
      vertex -30.5104 -7.83373 87
    endloop
  endfacet
  facet normal 0 -0 1
    outer loop
      vertex -31.2516 -3.948 87
      vertex -31.2516 3.948 87
      vertex -31.5 0 87
    endloop
  endfacet
  facet normal -0.481754 0.876307 0
    outer loop
      vertex -13.412 28.5021 4
      vertex -16.8785 26.5963 87
      vertex -13.412 28.5021 87
    endloop
  endfacet
  facet normal -0.481754 0.876307 0
    outer loop
      vertex -16.8785 26.5963 87
      vertex -13.412 28.5021 4
      vertex -16.8785 26.5963 4
    endloop
  endfacet
  facet normal -0.587785 0.809017 0
    outer loop
      vertex -16.8785 26.5963 4
      vertex -20.0789 24.2712 87
      vertex -16.8785 26.5963 87
    endloop
  endfacet
  facet normal -0.587785 0.809017 0
    outer loop
      vertex -20.0789 24.2712 87
      vertex -16.8785 26.5963 4
      vertex -20.0789 24.2712 4
    endloop
  endfacet
  facet normal -0.24869 0.968583 0
    outer loop
      vertex -5.90251 30.942 4
      vertex -9.73403 29.9583 87
      vertex -5.90251 30.942 87
    endloop
  endfacet
  facet normal -0.24869 0.968583 0
    outer loop
      vertex -9.73403 29.9583 87
      vertex -5.90251 30.942 4
      vertex -9.73403 29.9583 4
    endloop
  endfacet
  facet normal 0 0 -1
    outer loop
      vertex 0 -31.4378 4
      vertex -1.88371 -29.9408 4
      vertex 0 -29.9408 4
    endloop
  endfacet
  facet normal 0 0 -1
    outer loop
      vertex -1.9779 -31.4378 4
      vertex -1.88371 -29.9408 4
      vertex 0 -31.4378 4
    endloop
  endfacet
  facet normal 0 0 -1
    outer loop
      vertex -1.9779 -31.4378 4
      vertex -5.62144 -29.4686 4
      vertex -1.88371 -29.9408 4
    endloop
  endfacet
  facet normal 0 0 -1
    outer loop
      vertex -5.90251 -30.942 4
      vertex -5.62144 -29.4686 4
      vertex -1.9779 -31.4378 4
    endloop
  endfacet
  facet normal 0 0 -1
    outer loop
      vertex -5.90251 -30.942 4
      vertex -9.27051 -28.5317 4
      vertex -5.62144 -29.4686 4
    endloop
  endfacet
  facet normal 0 0 -1
    outer loop
      vertex -9.73403 -29.9583 4
      vertex -9.27051 -28.5317 4
      vertex -5.90251 -30.942 4
    endloop
  endfacet
  facet normal 0 0 -1
    outer loop
      vertex -9.73403 -29.9583 4
      vertex -12.7734 -27.1448 4
      vertex -9.27051 -28.5317 4
    endloop
  endfacet
  facet normal 0 0 -1
    outer loop
      vertex -13.412 -28.5021 4
      vertex -12.7734 -27.1448 4
      vertex -9.73403 -29.9583 4
    endloop
  endfacet
  facet normal 0 0 -1
    outer loop
      vertex -13.412 -28.5021 4
      vertex -16.0748 -25.3298 4
      vertex -12.7734 -27.1448 4
    endloop
  endfacet
  facet normal 0 0 -1
    outer loop
      vertex -16.8785 -26.5963 4
      vertex -16.0748 -25.3298 4
      vertex -13.412 -28.5021 4
    endloop
  endfacet
  facet normal 0 0 -1
    outer loop
      vertex -16.8785 -26.5963 4
      vertex -19.1227 -23.1154 4
      vertex -16.0748 -25.3298 4
    endloop
  endfacet
  facet normal 0 0 -1
    outer loop
      vertex -20.0789 -24.2712 4
      vertex -19.1227 -23.1154 4
      vertex -16.8785 -26.5963 4
    endloop
  endfacet
  facet normal 0 0 -1
    outer loop
      vertex -20.0789 -24.2712 4
      vertex -21.8691 -20.5364 4
      vertex -19.1227 -23.1154 4
    endloop
  endfacet
  facet normal 0 0 -1
    outer loop
      vertex -22.9625 -21.5632 4
      vertex -21.8691 -20.5364 4
      vertex -20.0789 -24.2712 4
    endloop
  endfacet
  facet normal 0 0 -1
    outer loop
      vertex -22.9625 -21.5632 4
      vertex -24.2705 -17.6336 4
      vertex -21.8691 -20.5364 4
    endloop
  endfacet
  facet normal 0 0 -1
    outer loop
      vertex -25.484 -18.5152 4
      vertex -24.2705 -17.6336 4
      vertex -22.9625 -21.5632 4
    endloop
  endfacet
  facet normal 0 0 -1
    outer loop
      vertex -25.484 -18.5152 4
      vertex -26.2892 -14.4526 4
      vertex -24.2705 -17.6336 4
    endloop
  endfacet
  facet normal 0 0 -1
    outer loop
      vertex -27.6037 -15.1752 4
      vertex -26.2892 -14.4526 4
      vertex -25.484 -18.5152 4
    endloop
  endfacet
  facet normal 0 0 -1
    outer loop
      vertex -27.6037 -15.1752 4
      vertex -27.8933 -11.0437 4
      vertex -26.2892 -14.4526 4
    endloop
  endfacet
  facet normal 0 0 -1
    outer loop
      vertex -29.288 -11.5959 4
      vertex -27.8933 -11.0437 4
      vertex -27.6037 -15.1752 4
    endloop
  endfacet
  facet normal -0 0 -1
    outer loop
      vertex -27.8933 -11.0437 4
      vertex -29.288 -11.5959 4
      vertex -29.0575 -7.4607 4
    endloop
  endfacet
  facet normal 0 0 -1
    outer loop
      vertex -30.5104 -7.83373 4
      vertex -29.0575 -7.4607 4
      vertex -29.288 -11.5959 4
    endloop
  endfacet
  facet normal -0 0 -1
    outer loop
      vertex -29.0575 -7.4607 4
      vertex -30.5104 -7.83373 4
      vertex -29.7634 -3.76 4
    endloop
  endfacet
  facet normal 0 0 -1
    outer loop
      vertex -31.2516 -3.948 4
      vertex -29.7634 -3.76 4
      vertex -30.5104 -7.83373 4
    endloop
  endfacet
  facet normal 0 0 -1
    outer loop
      vertex -1.88371 29.9408 4
      vertex 0 31.4378 4
      vertex 0 29.9408 4
    endloop
  endfacet
  facet normal 0 0 -1
    outer loop
      vertex -1.88371 29.9408 4
      vertex -1.9779 31.4378 4
      vertex 0 31.4378 4
    endloop
  endfacet
  facet normal 0 0 -1
    outer loop
      vertex -5.62144 29.4686 4
      vertex -1.9779 31.4378 4
      vertex -1.88371 29.9408 4
    endloop
  endfacet
  facet normal 0 0 -1
    outer loop
      vertex -5.62144 29.4686 4
      vertex -5.90251 30.942 4
      vertex -1.9779 31.4378 4
    endloop
  endfacet
  facet normal 0 0 -1
    outer loop
      vertex -9.27051 28.5317 4
      vertex -5.90251 30.942 4
      vertex -5.62144 29.4686 4
    endloop
  endfacet
  facet normal 0 0 -1
    outer loop
      vertex -9.27051 28.5317 4
      vertex -9.73403 29.9583 4
      vertex -5.90251 30.942 4
    endloop
  endfacet
  facet normal 0 0 -1
    outer loop
      vertex -12.7734 27.1448 4
      vertex -9.73403 29.9583 4
      vertex -9.27051 28.5317 4
    endloop
  endfacet
  facet normal 0 0 -1
    outer loop
      vertex -12.7734 27.1448 4
      vertex -13.412 28.5021 4
      vertex -9.73403 29.9583 4
    endloop
  endfacet
  facet normal 0 0 -1
    outer loop
      vertex -16.0748 25.3298 4
      vertex -13.412 28.5021 4
      vertex -12.7734 27.1448 4
    endloop
  endfacet
  facet normal 0 0 -1
    outer loop
      vertex -16.0748 25.3298 4
      vertex -16.8785 26.5963 4
      vertex -13.412 28.5021 4
    endloop
  endfacet
  facet normal 0 0 -1
    outer loop
      vertex -19.1227 23.1154 4
      vertex -16.8785 26.5963 4
      vertex -16.0748 25.3298 4
    endloop
  endfacet
  facet normal 0 0 -1
    outer loop
      vertex -19.1227 23.1154 4
      vertex -20.0789 24.2712 4
      vertex -16.8785 26.5963 4
    endloop
  endfacet
  facet normal 0 0 -1
    outer loop
      vertex -21.8691 20.5364 4
      vertex -20.0789 24.2712 4
      vertex -19.1227 23.1154 4
    endloop
  endfacet
  facet normal 0 0 -1
    outer loop
      vertex -21.8691 20.5364 4
      vertex -22.9625 21.5632 4
      vertex -20.0789 24.2712 4
    endloop
  endfacet
  facet normal 0 0 -1
    outer loop
      vertex -24.2705 17.6336 4
      vertex -22.9625 21.5632 4
      vertex -21.8691 20.5364 4
    endloop
  endfacet
  facet normal 0 0 -1
    outer loop
      vertex -24.2705 17.6336 4
      vertex -25.484 18.5152 4
      vertex -22.9625 21.5632 4
    endloop
  endfacet
  facet normal 0 0 -1
    outer loop
      vertex -26.2892 14.4526 4
      vertex -25.484 18.5152 4
      vertex -24.2705 17.6336 4
    endloop
  endfacet
  facet normal 0 0 -1
    outer loop
      vertex -26.2892 14.4526 4
      vertex -27.6037 15.1752 4
      vertex -25.484 18.5152 4
    endloop
  endfacet
  facet normal 0 0 -1
    outer loop
      vertex -27.8933 11.0437 4
      vertex -27.6037 15.1752 4
      vertex -26.2892 14.4526 4
    endloop
  endfacet
  facet normal 0 0 -1
    outer loop
      vertex -29.288 11.5959 4
      vertex -27.8933 11.0437 4
      vertex -29.0575 7.4607 4
    endloop
  endfacet
  facet normal 0 0 -1
    outer loop
      vertex -27.8933 11.0437 4
      vertex -29.288 11.5959 4
      vertex -27.6037 15.1752 4
    endloop
  endfacet
  facet normal 0 0 -1
    outer loop
      vertex -30.5104 7.83373 4
      vertex -29.0575 7.4607 4
      vertex -29.7634 3.76 4
    endloop
  endfacet
  facet normal 0 0 -1
    outer loop
      vertex -31.2516 3.948 4
      vertex -29.7634 3.76 4
      vertex -30 0 4
    endloop
  endfacet
  facet normal -0 0 -1
    outer loop
      vertex -29.7634 -3.76 4
      vertex -31.2516 -3.948 4
      vertex -30 0 4
    endloop
  endfacet
  facet normal 0 0 -1
    outer loop
      vertex -29.0575 7.4607 4
      vertex -30.5104 7.83373 4
      vertex -29.288 11.5959 4
    endloop
  endfacet
  facet normal 0 0 -1
    outer loop
      vertex -31.5 0 4
      vertex -30 0 4
      vertex -31.2516 -3.948 4
    endloop
  endfacet
  facet normal 0 0 -1
    outer loop
      vertex -29.7634 3.76 4
      vertex -31.2516 3.948 4
      vertex -30.5104 7.83373 4
    endloop
  endfacet
  facet normal 0 0 -1
    outer loop
      vertex -30 0 4
      vertex -31.5 0 4
      vertex -31.2516 3.948 4
    endloop
  endfacet
  facet normal -0.770513 -0.637424 0
    outer loop
      vertex -22.9625 -21.5632 4
      vertex -25.484 -18.5152 87
      vertex -25.484 -18.5152 4
    endloop
  endfacet
  facet normal -0.770513 -0.637424 0
    outer loop
      vertex -25.484 -18.5152 87
      vertex -22.9625 -21.5632 4
      vertex -22.9625 -21.5632 87
    endloop
  endfacet
  facet normal -0.951057 -0.309017 0
    outer loop
      vertex -29.288 -11.5959 4
      vertex -30.5104 -7.83373 87
      vertex -30.5104 -7.83373 4
    endloop
  endfacet
  facet normal -0.951057 -0.309017 0
    outer loop
      vertex -30.5104 -7.83373 87
      vertex -29.288 -11.5959 4
      vertex -29.288 -11.5959 87
    endloop
  endfacet
  facet normal -0.125333 -0.992115 0
    outer loop
      vertex -5.90251 -30.942 4
      vertex -1.9779 -31.4378 87
      vertex -5.90251 -30.942 87
    endloop
  endfacet
  facet normal -0.125333 -0.992115 -0
    outer loop
      vertex -1.9779 -31.4378 87
      vertex -5.90251 -30.942 4
      vertex -1.9779 -31.4378 4
    endloop
  endfacet
  facet normal -0.368124 -0.929777 0
    outer loop
      vertex -13.412 -28.5021 4
      vertex -9.73403 -29.9583 87
      vertex -13.412 -28.5021 87
    endloop
  endfacet
  facet normal -0.368124 -0.929777 -0
    outer loop
      vertex -9.73403 -29.9583 87
      vertex -13.412 -28.5021 4
      vertex -9.73403 -29.9583 4
    endloop
  endfacet
  facet normal -0.24869 -0.968583 0
    outer loop
      vertex -9.73403 -29.9583 4
      vertex -5.90251 -30.942 87
      vertex -9.73403 -29.9583 87
    endloop
  endfacet
  facet normal -0.24869 -0.968583 -0
    outer loop
      vertex -5.90251 -30.942 87
      vertex -9.73403 -29.9583 4
      vertex -5.90251 -30.942 4
    endloop
  endfacet
  facet normal -0.684547 -0.728968 0
    outer loop
      vertex -22.9625 -21.5632 4
      vertex -20.0789 -24.2712 87
      vertex -22.9625 -21.5632 87
    endloop
  endfacet
  facet normal -0.684547 -0.728968 -0
    outer loop
      vertex -20.0789 -24.2712 87
      vertex -22.9625 -21.5632 4
      vertex -20.0789 -24.2712 4
    endloop
  endfacet
  facet normal -0.982287 -0.187382 0
    outer loop
      vertex -30.5104 -7.83373 4
      vertex -31.2516 -3.948 87
      vertex -31.2516 -3.948 4
    endloop
  endfacet
  facet normal -0.982287 -0.187382 0
    outer loop
      vertex -31.2516 -3.948 87
      vertex -30.5104 -7.83373 4
      vertex -30.5104 -7.83373 87
    endloop
  endfacet
  facet normal -0.998027 -0.0627904 0
    outer loop
      vertex -31.2516 -3.948 4
      vertex -31.5 0 87
      vertex -31.5 0 4
    endloop
  endfacet
  facet normal -0.998027 -0.0627904 0
    outer loop
      vertex -31.5 0 87
      vertex -31.2516 -3.948 4
      vertex -31.2516 -3.948 87
    endloop
  endfacet
  facet normal -0.844328 -0.535827 0
    outer loop
      vertex -25.484 -18.5152 4
      vertex -27.6037 -15.1752 87
      vertex -27.6037 -15.1752 4
    endloop
  endfacet
  facet normal -0.844328 -0.535827 0
    outer loop
      vertex -27.6037 -15.1752 87
      vertex -25.484 -18.5152 4
      vertex -25.484 -18.5152 87
    endloop
  endfacet
  facet normal -0.904827 -0.425779 0
    outer loop
      vertex -27.6037 -15.1752 4
      vertex -29.288 -11.5959 87
      vertex -29.288 -11.5959 4
    endloop
  endfacet
  facet normal -0.904827 -0.425779 0
    outer loop
      vertex -29.288 -11.5959 87
      vertex -27.6037 -15.1752 4
      vertex -27.6037 -15.1752 87
    endloop
  endfacet
  facet normal -0.481754 -0.876307 0
    outer loop
      vertex -16.8785 -26.5963 4
      vertex -13.412 -28.5021 87
      vertex -16.8785 -26.5963 87
    endloop
  endfacet
  facet normal -0.481754 -0.876307 -0
    outer loop
      vertex -13.412 -28.5021 87
      vertex -16.8785 -26.5963 4
      vertex -13.412 -28.5021 4
    endloop
  endfacet
  facet normal -0.587785 -0.809017 0
    outer loop
      vertex -20.0789 -24.2712 4
      vertex -16.8785 -26.5963 87
      vertex -20.0789 -24.2712 87
    endloop
  endfacet
  facet normal -0.587785 -0.809017 -0
    outer loop
      vertex -16.8785 -26.5963 87
      vertex -20.0789 -24.2712 4
      vertex -16.8785 -26.5963 4
    endloop
  endfacet
  facet normal 0.951057 -0.309017 0
    outer loop
      vertex -29.0575 7.4607 85
      vertex -27.8933 11.0437 4
      vertex -27.8933 11.0437 85
    endloop
  endfacet
  facet normal 0.951057 -0.309017 0
    outer loop
      vertex -27.8933 11.0437 4
      vertex -29.0575 7.4607 85
      vertex -29.0575 7.4607 4
    endloop
  endfacet
  facet normal 0.368125 -0.929776 0
    outer loop
      vertex -12.7734 27.1448 4
      vertex -9.27051 28.5317 85
      vertex -12.7734 27.1448 85
    endloop
  endfacet
  facet normal 0.368125 -0.929776 0
    outer loop
      vertex -9.27051 28.5317 85
      vertex -12.7734 27.1448 4
      vertex -9.27051 28.5317 4
    endloop
  endfacet
  facet normal 0.904827 -0.42578 0
    outer loop
      vertex -27.8933 11.0437 85
      vertex -26.2892 14.4526 4
      vertex -26.2892 14.4526 85
    endloop
  endfacet
  facet normal 0.904827 -0.42578 0
    outer loop
      vertex -26.2892 14.4526 4
      vertex -27.8933 11.0437 85
      vertex -27.8933 11.0437 4
    endloop
  endfacet
  facet normal -0.125334 -0.992115 0
    outer loop
      vertex 1.88371 29.9408 6
      vertex 2 29.9261 85
      vertex 1.88371 29.9408 85
    endloop
  endfacet
  facet normal -0.125334 -0.992115 -0
    outer loop
      vertex 2 29.9261 85
      vertex 1.88371 29.9408 6
      vertex 2 29.9261 6
    endloop
  endfacet
  facet normal 0.770513 -0.637424 0
    outer loop
      vertex -24.2705 17.6336 85
      vertex -21.8691 20.5364 4
      vertex -21.8691 20.5364 85
    endloop
  endfacet
  facet normal 0.770513 -0.637424 0
    outer loop
      vertex -21.8691 20.5364 4
      vertex -24.2705 17.6336 85
      vertex -24.2705 17.6336 4
    endloop
  endfacet
  facet normal 0.481753 -0.876307 0
    outer loop
      vertex -16.0748 25.3298 4
      vertex -12.7734 27.1448 85
      vertex -16.0748 25.3298 85
    endloop
  endfacet
  facet normal 0.481753 -0.876307 0
    outer loop
      vertex -12.7734 27.1448 85
      vertex -16.0748 25.3298 4
      vertex -12.7734 27.1448 4
    endloop
  endfacet
  facet normal 0.587785 -0.809017 0
    outer loop
      vertex -19.1227 23.1154 4
      vertex -16.0748 25.3298 85
      vertex -19.1227 23.1154 85
    endloop
  endfacet
  facet normal 0.587785 -0.809017 0
    outer loop
      vertex -16.0748 25.3298 85
      vertex -19.1227 23.1154 4
      vertex -16.0748 25.3298 4
    endloop
  endfacet
  facet normal 0.125333 0.992115 -0
    outer loop
      vertex -1.88371 -29.9408 4
      vertex -5.62144 -29.4686 85
      vertex -1.88371 -29.9408 85
    endloop
  endfacet
  facet normal 0.125333 0.992115 0
    outer loop
      vertex -5.62144 -29.4686 85
      vertex -1.88371 -29.9408 4
      vertex -5.62144 -29.4686 4
    endloop
  endfacet
  facet normal 0 -1 0
    outer loop
      vertex -1.88371 29.9408 85
      vertex 0 29.9408 6
      vertex 1.88371 29.9408 85
    endloop
  endfacet
  facet normal 0 -1 0
    outer loop
      vertex -1.88371 29.9408 4
      vertex 0 29.9408 6
      vertex -1.88371 29.9408 85
    endloop
  endfacet
  facet normal 0 -1 -0
    outer loop
      vertex 0 29.9408 6
      vertex -1.88371 29.9408 4
      vertex 0 29.9408 4
    endloop
  endfacet
  facet normal 0 -1 -0
    outer loop
      vertex 1.88371 29.9408 85
      vertex 0 29.9408 6
      vertex 1.88371 29.9408 6
    endloop
  endfacet
  facet normal 0.998027 -0.062791 0
    outer loop
      vertex -30 0 85
      vertex -29.7634 3.76 4
      vertex -29.7634 3.76 85
    endloop
  endfacet
  facet normal 0.998027 -0.062791 0
    outer loop
      vertex -29.7634 3.76 4
      vertex -30 0 85
      vertex -30 0 4
    endloop
  endfacet
  facet normal 0.125333 -0.992115 0
    outer loop
      vertex -5.62144 29.4686 4
      vertex -1.88371 29.9408 85
      vertex -5.62144 29.4686 85
    endloop
  endfacet
  facet normal 0.125333 -0.992115 0
    outer loop
      vertex -1.88371 29.9408 85
      vertex -5.62144 29.4686 4
      vertex -1.88371 29.9408 4
    endloop
  endfacet
  facet normal 0.248689 -0.968583 0
    outer loop
      vertex -9.27051 28.5317 4
      vertex -5.62144 29.4686 85
      vertex -9.27051 28.5317 85
    endloop
  endfacet
  facet normal 0.248689 -0.968583 0
    outer loop
      vertex -5.62144 29.4686 85
      vertex -9.27051 28.5317 4
      vertex -5.62144 29.4686 4
    endloop
  endfacet
  facet normal 0.684547 -0.728969 0
    outer loop
      vertex -21.8691 20.5364 4
      vertex -19.1227 23.1154 85
      vertex -21.8691 20.5364 85
    endloop
  endfacet
  facet normal 0.684547 -0.728969 0
    outer loop
      vertex -19.1227 23.1154 85
      vertex -21.8691 20.5364 4
      vertex -19.1227 23.1154 4
    endloop
  endfacet
  facet normal 0.248689 0.968583 -0
    outer loop
      vertex -5.62144 -29.4686 4
      vertex -9.27051 -28.5317 85
      vertex -5.62144 -29.4686 85
    endloop
  endfacet
  facet normal 0.248689 0.968583 0
    outer loop
      vertex -9.27051 -28.5317 85
      vertex -5.62144 -29.4686 4
      vertex -9.27051 -28.5317 4
    endloop
  endfacet
  facet normal -0.125334 0.992115 0
    outer loop
      vertex 2 -29.9261 6
      vertex 1.88371 -29.9408 85
      vertex 2 -29.9261 85
    endloop
  endfacet
  facet normal -0.125334 0.992115 0
    outer loop
      vertex 1.88371 -29.9408 85
      vertex 2 -29.9261 6
      vertex 1.88371 -29.9408 6
    endloop
  endfacet
  facet normal 0 0 -1
    outer loop
      vertex -1.88371 -29.9408 85
      vertex 2 -29.9261 85
      vertex 1.88371 -29.9408 85
    endloop
  endfacet
  facet normal -0 0 -1
    outer loop
      vertex 2 -29.9261 85
      vertex -1.88371 -29.9408 85
      vertex 2 29.9261 85
    endloop
  endfacet
  facet normal 0 0 -1
    outer loop
      vertex -1.88371 29.9408 85
      vertex 2 29.9261 85
      vertex -1.88371 -29.9408 85
    endloop
  endfacet
  facet normal 0 0 -1
    outer loop
      vertex 2 29.9261 85
      vertex -1.88371 29.9408 85
      vertex 1.88371 29.9408 85
    endloop
  endfacet
  facet normal 0 0 -1
    outer loop
      vertex -5.62144 -29.4686 85
      vertex -1.88371 29.9408 85
      vertex -1.88371 -29.9408 85
    endloop
  endfacet
  facet normal 0 0 -1
    outer loop
      vertex -5.62144 -29.4686 85
      vertex -5.62144 29.4686 85
      vertex -1.88371 29.9408 85
    endloop
  endfacet
  facet normal 0 0 -1
    outer loop
      vertex -9.27051 -28.5317 85
      vertex -5.62144 29.4686 85
      vertex -5.62144 -29.4686 85
    endloop
  endfacet
  facet normal 0 0 -1
    outer loop
      vertex -9.27051 -28.5317 85
      vertex -9.27051 28.5317 85
      vertex -5.62144 29.4686 85
    endloop
  endfacet
  facet normal 0 0 -1
    outer loop
      vertex -12.7734 -27.1448 85
      vertex -9.27051 28.5317 85
      vertex -9.27051 -28.5317 85
    endloop
  endfacet
  facet normal 0 0 -1
    outer loop
      vertex -12.7734 -27.1448 85
      vertex -12.7734 27.1448 85
      vertex -9.27051 28.5317 85
    endloop
  endfacet
  facet normal 0 0 -1
    outer loop
      vertex -16.0748 -25.3298 85
      vertex -12.7734 27.1448 85
      vertex -12.7734 -27.1448 85
    endloop
  endfacet
  facet normal 0 0 -1
    outer loop
      vertex -16.0748 -25.3298 85
      vertex -16.0748 25.3298 85
      vertex -12.7734 27.1448 85
    endloop
  endfacet
  facet normal 0 0 -1
    outer loop
      vertex -19.1227 -23.1154 85
      vertex -16.0748 25.3298 85
      vertex -16.0748 -25.3298 85
    endloop
  endfacet
  facet normal 0 0 -1
    outer loop
      vertex -19.1227 -23.1154 85
      vertex -19.1227 23.1154 85
      vertex -16.0748 25.3298 85
    endloop
  endfacet
  facet normal 0 0 -1
    outer loop
      vertex -21.8691 -20.5364 85
      vertex -19.1227 23.1154 85
      vertex -19.1227 -23.1154 85
    endloop
  endfacet
  facet normal 0 0 -1
    outer loop
      vertex -21.8691 -20.5364 85
      vertex -21.8691 20.5364 85
      vertex -19.1227 23.1154 85
    endloop
  endfacet
  facet normal 0 0 -1
    outer loop
      vertex -24.2705 -17.6336 85
      vertex -21.8691 20.5364 85
      vertex -21.8691 -20.5364 85
    endloop
  endfacet
  facet normal 0 0 -1
    outer loop
      vertex -24.2705 -17.6336 85
      vertex -24.2705 17.6336 85
      vertex -21.8691 20.5364 85
    endloop
  endfacet
  facet normal 0 0 -1
    outer loop
      vertex -26.2892 -14.4526 85
      vertex -24.2705 17.6336 85
      vertex -24.2705 -17.6336 85
    endloop
  endfacet
  facet normal 0 0 -1
    outer loop
      vertex -26.2892 -14.4526 85
      vertex -26.2892 14.4526 85
      vertex -24.2705 17.6336 85
    endloop
  endfacet
  facet normal 0 0 -1
    outer loop
      vertex -27.8933 -11.0437 85
      vertex -26.2892 14.4526 85
      vertex -26.2892 -14.4526 85
    endloop
  endfacet
  facet normal 0 0 -1
    outer loop
      vertex -27.8933 -11.0437 85
      vertex -27.8933 11.0437 85
      vertex -26.2892 14.4526 85
    endloop
  endfacet
  facet normal 0 0 -1
    outer loop
      vertex -29.0575 -7.4607 85
      vertex -27.8933 11.0437 85
      vertex -27.8933 -11.0437 85
    endloop
  endfacet
  facet normal 0 0 -1
    outer loop
      vertex -29.0575 -7.4607 85
      vertex -29.0575 7.4607 85
      vertex -27.8933 11.0437 85
    endloop
  endfacet
  facet normal 0 0 -1
    outer loop
      vertex -29.7634 -3.76 85
      vertex -29.0575 7.4607 85
      vertex -29.0575 -7.4607 85
    endloop
  endfacet
  facet normal 0 0 -1
    outer loop
      vertex -29.7634 -3.76 85
      vertex -29.7634 3.76 85
      vertex -29.0575 7.4607 85
    endloop
  endfacet
  facet normal 0 -0 -1
    outer loop
      vertex -29.7634 3.76 85
      vertex -29.7634 -3.76 85
      vertex -30 0 85
    endloop
  endfacet
  facet normal 0.982287 -0.187381 0
    outer loop
      vertex -29.7634 3.76 85
      vertex -29.0575 7.4607 4
      vertex -29.0575 7.4607 85
    endloop
  endfacet
  facet normal 0.982287 -0.187381 0
    outer loop
      vertex -29.0575 7.4607 4
      vertex -29.7634 3.76 85
      vertex -29.7634 3.76 4
    endloop
  endfacet
  facet normal 0.844328 -0.535827 0
    outer loop
      vertex -26.2892 14.4526 85
      vertex -24.2705 17.6336 4
      vertex -24.2705 17.6336 85
    endloop
  endfacet
  facet normal 0.844328 -0.535827 0
    outer loop
      vertex -24.2705 17.6336 4
      vertex -26.2892 14.4526 85
      vertex -26.2892 14.4526 4
    endloop
  endfacet
  facet normal 0.368125 0.929776 -0
    outer loop
      vertex -9.27051 -28.5317 4
      vertex -12.7734 -27.1448 85
      vertex -9.27051 -28.5317 85
    endloop
  endfacet
  facet normal 0.368125 0.929776 0
    outer loop
      vertex -12.7734 -27.1448 85
      vertex -9.27051 -28.5317 4
      vertex -12.7734 -27.1448 4
    endloop
  endfacet
  facet normal 0.998027 0.062791 0
    outer loop
      vertex -29.7634 -3.76 85
      vertex -30 0 4
      vertex -30 0 85
    endloop
  endfacet
  facet normal 0.998027 0.062791 0
    outer loop
      vertex -30 0 4
      vertex -29.7634 -3.76 85
      vertex -29.7634 -3.76 4
    endloop
  endfacet
  facet normal 0.951057 0.309017 0
    outer loop
      vertex -27.8933 -11.0437 85
      vertex -29.0575 -7.4607 4
      vertex -29.0575 -7.4607 85
    endloop
  endfacet
  facet normal 0.951057 0.309017 0
    outer loop
      vertex -29.0575 -7.4607 4
      vertex -27.8933 -11.0437 85
      vertex -27.8933 -11.0437 4
    endloop
  endfacet
  facet normal 0.770513 0.637424 0
    outer loop
      vertex -21.8691 -20.5364 85
      vertex -24.2705 -17.6336 4
      vertex -24.2705 -17.6336 85
    endloop
  endfacet
  facet normal 0.770513 0.637424 0
    outer loop
      vertex -24.2705 -17.6336 4
      vertex -21.8691 -20.5364 85
      vertex -21.8691 -20.5364 4
    endloop
  endfacet
  facet normal 0.684547 0.728969 -0
    outer loop
      vertex -19.1227 -23.1154 4
      vertex -21.8691 -20.5364 85
      vertex -19.1227 -23.1154 85
    endloop
  endfacet
  facet normal 0.684547 0.728969 0
    outer loop
      vertex -21.8691 -20.5364 85
      vertex -19.1227 -23.1154 4
      vertex -21.8691 -20.5364 4
    endloop
  endfacet
  facet normal 0 1 0
    outer loop
      vertex 0 -29.9408 6
      vertex 1.88371 -29.9408 85
      vertex 1.88371 -29.9408 6
    endloop
  endfacet
  facet normal 0 1 0
    outer loop
      vertex 1.88371 -29.9408 85
      vertex 0 -29.9408 6
      vertex -1.88371 -29.9408 85
    endloop
  endfacet
  facet normal 0 1 0
    outer loop
      vertex -1.88371 -29.9408 4
      vertex 0 -29.9408 6
      vertex 0 -29.9408 4
    endloop
  endfacet
  facet normal 0 1 0
    outer loop
      vertex 0 -29.9408 6
      vertex -1.88371 -29.9408 4
      vertex -1.88371 -29.9408 85
    endloop
  endfacet
  facet normal 0.587785 0.809017 -0
    outer loop
      vertex -16.0748 -25.3298 4
      vertex -19.1227 -23.1154 85
      vertex -16.0748 -25.3298 85
    endloop
  endfacet
  facet normal 0.587785 0.809017 0
    outer loop
      vertex -19.1227 -23.1154 85
      vertex -16.0748 -25.3298 4
      vertex -19.1227 -23.1154 4
    endloop
  endfacet
  facet normal 0.481753 0.876307 -0
    outer loop
      vertex -12.7734 -27.1448 4
      vertex -16.0748 -25.3298 85
      vertex -12.7734 -27.1448 85
    endloop
  endfacet
  facet normal 0.481753 0.876307 0
    outer loop
      vertex -16.0748 -25.3298 85
      vertex -12.7734 -27.1448 4
      vertex -16.0748 -25.3298 4
    endloop
  endfacet
  facet normal 0.982287 0.187381 0
    outer loop
      vertex -29.0575 -7.4607 85
      vertex -29.7634 -3.76 4
      vertex -29.7634 -3.76 85
    endloop
  endfacet
  facet normal 0.982287 0.187381 0
    outer loop
      vertex -29.7634 -3.76 4
      vertex -29.0575 -7.4607 85
      vertex -29.0575 -7.4607 4
    endloop
  endfacet
  facet normal 0.844328 0.535827 0
    outer loop
      vertex -24.2705 -17.6336 85
      vertex -26.2892 -14.4526 4
      vertex -26.2892 -14.4526 85
    endloop
  endfacet
  facet normal 0.844328 0.535827 0
    outer loop
      vertex -26.2892 -14.4526 4
      vertex -24.2705 -17.6336 85
      vertex -24.2705 -17.6336 4
    endloop
  endfacet
  facet normal 0.904827 0.42578 0
    outer loop
      vertex -26.2892 -14.4526 85
      vertex -27.8933 -11.0437 4
      vertex -27.8933 -11.0437 85
    endloop
  endfacet
  facet normal 0.904827 0.42578 0
    outer loop
      vertex -27.8933 -11.0437 4
      vertex -26.2892 -14.4526 85
      vertex -26.2892 -14.4526 4
    endloop
  endfacet
  facet normal 1 0 0
    outer loop
      vertex 2 31.435 87
      vertex 2 29.9261 85
      vertex 2 31.435 6
    endloop
  endfacet
  facet normal 1 0 0
    outer loop
      vertex 2 31.435 87
      vertex 2 -29.9261 85
      vertex 2 29.9261 85
    endloop
  endfacet
  facet normal 1 -0 0
    outer loop
      vertex 2 -31.435 87
      vertex 2 -29.9261 85
      vertex 2 31.435 87
    endloop
  endfacet
  facet normal 1 0 0
    outer loop
      vertex 2 -31.435 6
      vertex 2 -29.9261 85
      vertex 2 -31.435 87
    endloop
  endfacet
  facet normal 1 0 0
    outer loop
      vertex 2 -29.9261 85
      vertex 2 -31.435 6
      vertex 2 -29.9261 6
    endloop
  endfacet
  facet normal 1 0 0
    outer loop
      vertex 2 31.435 6
      vertex 2 29.9261 85
      vertex 2 29.9261 6
    endloop
  endfacet
  facet normal 1 -0 0
    outer loop
      vertex 0 29.9408 6
      vertex 0 31.4378 4
      vertex 0 31.4378 6
    endloop
  endfacet
  facet normal 1 0 0
    outer loop
      vertex 0 31.4378 4
      vertex 0 29.9408 6
      vertex 0 29.9408 4
    endloop
  endfacet
  facet normal 1 -0 0
    outer loop
      vertex 0 -31.4378 6
      vertex 0 -29.9408 4
      vertex 0 -29.9408 6
    endloop
  endfacet
  facet normal 1 0 0
    outer loop
      vertex 0 -29.9408 4
      vertex 0 -31.4378 6
      vertex 0 -31.4378 4
    endloop
  endfacet
  facet normal 0 0 -1
    outer loop
      vertex 1.88371 29.9408 6
      vertex 2 31.435 6
      vertex 2 29.9261 6
    endloop
  endfacet
  facet normal -0 0 -1
    outer loop
      vertex 2 31.435 6
      vertex 1.88371 29.9408 6
      vertex 1.9779 31.4378 6
    endloop
  endfacet
  facet normal 0 0 -1
    outer loop
      vertex 0 31.4378 6
      vertex 1.88371 29.9408 6
      vertex 0 29.9408 6
    endloop
  endfacet
  facet normal 0 0 -1
    outer loop
      vertex 1.88371 29.9408 6
      vertex 0 31.4378 6
      vertex 1.9779 31.4378 6
    endloop
  endfacet
  facet normal 0 0 -1
    outer loop
      vertex 1.88371 -29.9408 6
      vertex 2 -31.435 6
      vertex 1.9779 -31.4378 6
    endloop
  endfacet
  facet normal 0 0 -1
    outer loop
      vertex 2 -31.435 6
      vertex 1.88371 -29.9408 6
      vertex 2 -29.9261 6
    endloop
  endfacet
  facet normal 0 0 -1
    outer loop
      vertex 0 -31.4378 6
      vertex 1.88371 -29.9408 6
      vertex 1.9779 -31.4378 6
    endloop
  endfacet
  facet normal -0 0 -1
    outer loop
      vertex 1.88371 -29.9408 6
      vertex 0 -31.4378 6
      vertex 0 -29.9408 6
    endloop
  endfacet
endsolid OpenSCAD_Model
